<svg xmlns="http://www.w3.org/2000/svg" width="260" height="180" viewBox="0 0 260 180" fill="none">
  <defs>
    <radialGradient id="roseGrad" cx="50%" cy="44%" r="62%">
      <stop offset="0" stop-color="#FF6B72"/>
      <stop offset="0.48" stop-color="#D73443"/>
      <stop offset="1" stop-color="#7D0F20"/>
    </radialGradient>
    <radialGradient id="creamGrad" cx="48%" cy="42%" r="66%">
      <stop offset="0" stop-color="#FFF3D4"/>
      <stop offset="0.58" stop-color="#E6CF9B"/>
      <stop offset="1" stop-color="#A67A43"/>
    </radialGradient>
    <linearGradient id="leafGrad" x1="66" y1="118" x2="194" y2="34" gradientUnits="userSpaceOnUse">
      <stop stop-color="#657A3D"/>
      <stop offset="0.5" stop-color="#B2B465"/>
      <stop offset="1" stop-color="#496C39"/>
    </linearGradient>
  </defs>

  <g stroke="#CF3140" stroke-width="1.3" stroke-linecap="round" opacity=".75">
    <path d="M130 25v27M130 96v24M97 38l15 23M163 38l-15 23M80 67l28 8M180 67l-28 8M95 110l20-22M165 110l-20-22"/>
  </g>

  <g stroke="url(#leafGrad)" stroke-width="3" stroke-linecap="round" stroke-linejoin="round">
    <path d="M109 38C77 51 67 83 80 114"/>
    <path d="M151 38c32 13 42 45 29 76"/>
    <path d="M94 50c-4-13 6-18 14-14-1 9-6 14-14 14Z" fill="#A9AD62"/>
    <path d="M83 72c-10-9-5-18 4-21 5 8 4 15-4 21Z" fill="#8FA352"/>
    <path d="M83 100c-13-3-14-13-7-19 8 5 11 11 7 19Z" fill="#657A3D"/>
    <path d="M101 117c-11 7-20 1-20-9 9-2 16 1 20 9Z" fill="#A9AD62"/>
    <path d="M166 50c4-13-6-18-14-14 1 9 6 14 14 14Z" fill="#A9AD62"/>
    <path d="M177 72c10-9 5-18-4-21-5 8-4 15 4 21Z" fill="#8FA352"/>
    <path d="M177 100c13-3 14-13 7-19-8 5-11 11-7 19Z" fill="#657A3D"/>
    <path d="M159 117c11 7 20 1 20-9-9-2-16 1-20 9Z" fill="#A9AD62"/>
  </g>

  <g transform="translate(130 82)">
    <g fill="url(#roseGrad)" opacity=".98">
      <ellipse cx="0" cy="-17" rx="13" ry="24"/>
      <ellipse cx="0" cy="17" rx="13" ry="24"/>
      <ellipse cx="-17" cy="0" rx="24" ry="13"/>
      <ellipse cx="17" cy="0" rx="24" ry="13"/>
      <ellipse cx="-12" cy="-12" rx="20" ry="11" transform="rotate(-45 -12 -12)"/>
      <ellipse cx="12" cy="-12" rx="20" ry="11" transform="rotate(45 12 -12)"/>
      <ellipse cx="-12" cy="12" rx="20" ry="11" transform="rotate(45 -12 12)"/>
      <ellipse cx="12" cy="12" rx="20" ry="11" transform="rotate(-45 12 12)"/>
    </g>
    <circle cx="0" cy="0" r="9" fill="#D5B35F"/>
    <circle cx="0" cy="0" r="4" fill="#6F2419" opacity=".75"/>
  </g>

  <g transform="translate(96 83) rotate(-14)">
    <g fill="url(#creamGrad)" opacity=".95">
      <ellipse cx="0" cy="-10" rx="7" ry="16"/>
      <ellipse cx="0" cy="10" rx="7" ry="16"/>
      <ellipse cx="-10" cy="0" rx="16" ry="7"/>
      <ellipse cx="10" cy="0" rx="16" ry="7"/>
      <ellipse cx="-7" cy="-7" rx="13" ry="6" transform="rotate(-45 -7 -7)"/>
      <ellipse cx="7" cy="-7" rx="13" ry="6" transform="rotate(45 7 -7)"/>
    </g>
    <circle cx="0" cy="0" r="5" fill="#C79649"/>
  </g>

  <g transform="translate(164 83) rotate(14)">
    <g fill="url(#roseGrad)" opacity=".9">
      <ellipse cx="0" cy="-9" rx="6" ry="14"/>
      <ellipse cx="0" cy="9" rx="6" ry="14"/>
      <ellipse cx="-9" cy="0" rx="14" ry="6"/>
      <ellipse cx="9" cy="0" rx="14" ry="6"/>
      <ellipse cx="-6" cy="-6" rx="12" ry="5" transform="rotate(-45 -6 -6)"/>
      <ellipse cx="6" cy="-6" rx="12" ry="5" transform="rotate(45 6 -6)"/>
    </g>
    <circle cx="0" cy="0" r="4.5" fill="#D5B35F"/>
  </g>

  <text x="130" y="43" text-anchor="middle" fill="#D83B49" font-family="Georgia, 'Times New Roman', serif" font-size="25">LSG</text>
  <text x="130" y="152" text-anchor="middle" fill="#BBAE68" font-family="Georgia, 'Times New Roman', serif" font-size="12" letter-spacing="9">ЛОКАЦИЯ</text>
</svg>
